<svg xmlns="http://www.w3.org/2000/svg" width="536" height="534" fill="none" viewBox="0 0 536 534">
  <path fill="#fff" d="M0 0h536v534H0z"/>
  <path fill="#fff" fill-rule="evenodd" d="M177 209.079C177 161.065 218.044 122 268.5 122s91.5 39.065 91.5 87.079c0 72.149-60.967 81.738-86.586 142.638-.368.875-1.218.992-1.429 1.181a5.238 5.238 0 0 1-3.485 1.313 5.238 5.238 0 0 1-3.485-1.313c-.21-.187-.697-.585-1.428-1.18C236.983 290.315 177 281.231 177 209.079Z" clip-rule="evenodd"/>
  <path fill="#95BEFA" fill-rule="evenodd" d="M177 209.079C177 161.065 218.044 122 268.5 122s91.5 39.065 91.5 87.079c0 72.149-60.967 81.738-86.586 142.638-.368.875-1.218.992-1.429 1.181a5.238 5.238 0 0 1-3.485 1.313 5.238 5.238 0 0 1-3.485-1.313c-.21-.187-.697-.585-1.428-1.18C236.983 290.315 177 281.231 177 209.079Zm91.5 50.453c24.984 0 45.238-20.885 45.238-46.648s-20.254-46.648-45.238-46.648c-24.985 0-45.239 20.885-45.239 46.648s20.254 46.648 45.239 46.648Z" clip-rule="evenodd"/>
  <path fill="#95BEFA" fill-rule="evenodd" d="M177 209.079C177 161.065 218.044 122 268.5 122s91.5 39.065 91.5 87.079c0 72.149-60.967 81.738-86.586 142.638-.368.875-1.218.992-1.429 1.181a5.238 5.238 0 0 1-3.485 1.313 5.238 5.238 0 0 1-3.485-1.313c-.21-.187-.697-.585-1.428-1.18C236.983 290.315 177 281.231 177 209.079Z" clip-rule="evenodd"/>
  <path fill="#fff" d="M313.738 212.884c0 25.763-20.254 46.648-45.238 46.648-24.985 0-45.239-20.885-45.239-46.648s20.254-46.648 45.239-46.648c24.984 0 45.238 20.885 45.238 46.648Z"/>
  <path fill="#285DAA" fill-rule="evenodd" d="M236.266 362.092c-4.277 0-7.745 4.631-7.745 10.344v28.917c0 5.713 3.468 10.344 7.745 10.344h65.48c4.278 0 7.745-4.631 7.745-10.344v-28.917c0-5.713-3.467-10.344-7.745-10.344h-65.48Z" clip-rule="evenodd"/>
  <path fill="#285DAA" d="M296.696 375.487h-55.657v22.67h55.657v-22.67Z"/>
</svg>
